<svg width="30" height="30" viewBox="0 0 30 30" fill="none" xmlns="http://www.w3.org/2000/svg">
<path d="M15 2.8125C8.27988 2.8125 2.8125 8.27988 2.8125 15C2.8125 21.7201 8.27988 27.1875 15 27.1875C21.7201 27.1875 27.1875 21.7201 27.1875 15C27.1875 8.27988 21.7201 2.8125 15 2.8125ZM12.0574 9.65742C12.7998 8.87051 13.8445 8.4375 15 8.4375C16.1555 8.4375 17.1908 8.87344 17.9361 9.66445C18.6914 10.466 19.0588 11.543 18.9721 12.7008C18.7986 15 17.0174 16.875 15 16.875C12.9826 16.875 11.1979 15 11.0279 12.7002C10.9418 11.533 11.3086 10.4525 12.0574 9.65742ZM15 25.3125C13.6233 25.3134 12.2605 25.0379 10.9923 24.5022C9.72409 23.9665 8.57637 23.1817 7.61719 22.1941C8.16654 21.4107 8.8665 20.7446 9.67617 20.2348C11.1697 19.2773 13.06 18.75 15 18.75C16.94 18.75 18.8303 19.2773 20.3221 20.2348C21.1324 20.7444 21.833 21.4105 22.3828 22.1941C21.4237 23.1818 20.276 23.9667 19.0078 24.5024C17.7396 25.0381 16.3767 25.3135 15 25.3125Z" fill="#686868"/>
</svg>
