<svg width="40" height="40" viewBox="0 0 40 40" fill="none" xmlns="http://www.w3.org/2000/svg">
<path d="M17.2727 5C14.8454 5 12.4726 5.71978 10.4543 7.06832C8.43611 8.41685 6.86309 10.3336 5.93421 12.5761C5.00532 14.8186 4.76228 17.2863 5.23582 19.6669C5.70936 22.0476 6.87822 24.2344 8.59458 25.9507C10.3109 27.6671 12.4977 28.836 14.8784 29.3095C17.259 29.783 19.7267 29.54 21.9692 28.6111C24.2117 27.6822 26.1285 26.1092 27.477 24.091C28.8255 22.0728 29.5453 19.7 29.5453 17.2727C29.5451 14.0178 28.252 10.8963 25.9505 8.59481C23.649 6.29328 20.5275 5.00021 17.2727 5V5Z" stroke="black" stroke-width="2" stroke-miterlimit="10"/>
<path d="M26.4288 26.4289L34.9999 35" stroke="black" stroke-width="2" stroke-miterlimit="10" stroke-linecap="round"/>
</svg>
